<svg width="161" height="32" viewBox="0 0 161 32" fill="none" xmlns="http://www.w3.org/2000/svg">
<g clip-path="url(#clip0)">
<path d="M24.5 16C24.5 20.6944 20.6944 24.5 16 24.5C11.3056 24.5 7.5 20.6944 7.5 16C7.5 11.3056 11.3056 7.5 16 7.5C20.6944 7.5 24.5 11.3056 24.5 16Z" stroke="white" stroke-width="2"/>
<path d="M29 16C29 23.1797 23.1797 29 16 29C8.8203 29 3 23.1797 3 16C3 8.8203 8.8203 3 16 3C23.1797 3 29 8.8203 29 16Z" stroke="white" stroke-width="2"/>
<circle cx="16" cy="16" r="3" fill="white"/>
<text x="40" y="20" font-family="Arial, sans-serif" font-size="16" font-weight="bold" fill="white">headphones</text>
</g>
<defs>
<clipPath id="clip0">
<rect width="161" height="32" fill="white"/>
</clipPath>
</defs>
</svg>